<svg width="24" height="29" viewBox="0 0 24 29" fill="none" xmlns="http://www.w3.org/2000/svg">
<path d="M14 14.1703V23.1703H15.4525C15.8451 23.1752 16.2245 23.0292 16.5125 22.7624C16.8005 22.4956 16.975 22.1283 17 21.7365C17.0116 21.4641 16.9488 21.1936 16.8182 20.9542C16.6876 20.7148 16.4942 20.5155 16.2588 20.3778C16.1815 20.3338 16.1172 20.2704 16.072 20.1939C16.0268 20.1174 16.0024 20.0304 16.0012 19.9415V18.8428C16.001 18.7636 16.0196 18.6855 16.0555 18.615C16.0914 18.5444 16.1435 18.4833 16.2076 18.4368C16.2717 18.3903 16.3458 18.3597 16.4241 18.3475C16.5023 18.3353 16.5823 18.3418 16.6575 18.3665C17.3358 18.6053 17.9244 19.0469 18.3434 19.6314C18.7624 20.2158 18.9916 20.9149 19 21.634C19.02 23.579 17.375 25.1703 15.4263 25.1703H14V27.1703C14 27.4355 13.8946 27.6899 13.7071 27.8774C13.5196 28.0649 13.2652 28.1703 13 28.1703C12.7348 28.1703 12.4804 28.0649 12.2929 27.8774C12.1054 27.6899 12 27.4355 12 27.1703V25.1703H9C8.86291 25.1706 8.72723 25.1427 8.60137 25.0884C8.47552 25.034 8.36218 24.9544 8.2684 24.8544C8.17462 24.7544 8.1024 24.6362 8.05623 24.5071C8.01006 24.378 7.99092 24.2408 8 24.104C8.02212 23.8465 8.14111 23.6068 8.33296 23.4336C8.52481 23.2603 8.77525 23.1662 9.03375 23.1703H12V14.1703H10.0575C8.9825 14.1703 8.0575 14.9953 8.0025 16.069C7.97802 16.5489 8.12713 17.0216 8.42254 17.4005C8.71795 17.7795 9.13991 18.0394 9.61125 18.1328C9.72213 18.1567 9.82137 18.2181 9.8922 18.3067C9.96303 18.3953 10.0011 18.5056 10 18.619V19.6703C10 19.8029 9.94732 19.9301 9.85355 20.0238C9.75979 20.1176 9.63261 20.1703 9.5 20.1703C8.89979 20.1705 8.30561 20.0506 7.75243 19.8176C7.19925 19.5847 6.69826 19.2435 6.27894 18.8141C5.85963 18.3846 5.53046 17.8756 5.31082 17.317C5.09117 16.7584 4.9855 16.1616 5 15.5615C5.05875 13.1053 7.125 11.1703 9.585 11.1703H12V1.17029C12 0.905072 12.1054 0.650718 12.2929 0.463181C12.4804 0.275645 12.7348 0.170288 13 0.170288C13.2652 0.170288 13.5196 0.275645 13.7071 0.463181C13.8946 0.650718 14 0.905072 14 1.17029V11.1703H18C18.2714 11.1706 18.54 11.1157 18.7895 11.009C19.039 10.9022 19.2641 10.7457 19.4513 10.5492C19.6384 10.3526 19.7835 10.12 19.8778 9.86553C19.9722 9.61107 20.0137 9.34008 20 9.06904C19.945 7.99529 19.0175 7.17029 17.9425 7.17029H16.5C16.3674 7.17029 16.2402 7.11761 16.1464 7.02384C16.0527 6.93007 16 6.8029 16 6.67029V3.67029C16 3.53768 16.0527 3.4105 16.1464 3.31673C16.2402 3.22297 16.3674 3.17029 16.5 3.17029H18.4025C21.48 3.17029 24.0525 5.68904 23.9988 8.76529C23.9738 10.2072 23.3836 11.5817 22.3551 12.5927C21.3266 13.6036 19.9422 14.1702 18.5 14.1703H14ZM8.5825 7.17029H9.5C9.63261 7.17029 9.75979 7.11761 9.85355 7.02384C9.94732 6.93007 10 6.8029 10 6.67029V3.67029C10 3.53768 9.94732 3.4105 9.85355 3.31673C9.75979 3.22297 9.63261 3.17029 9.5 3.17029H5C3.67392 3.17029 2.40215 3.69707 1.46447 4.63475C0.526784 5.57244 0 6.84421 0 8.17029V9.17029C0 9.4355 0.105357 9.68986 0.292893 9.87739C0.48043 10.0649 0.734784 10.1703 1 10.1703H4C4.97287 10.1703 5.92461 9.88644 6.73857 9.35357C7.55253 8.8207 8.19335 8.06194 8.5825 7.17029Z" fill="#4D7CAE"/>
</svg>
