<svg width="240" height="138" viewBox="0 0 240 138" fill="none" xmlns="http://www.w3.org/2000/svg">
<g opacity="0.76">
<mask id="mask0_1529_7469" style="mask-type:luminance" maskUnits="userSpaceOnUse" x="0" y="0" width="240" height="138">
<path d="M16 0H224C232.837 0 240 7.16344 240 16V122C240 130.837 232.837 138 224 138H16C7.16344 138 0 130.837 0 122V16C0 7.16344 7.16344 0 16 0Z" fill="white"/>
</mask>
<g mask="url(#mask0_1529_7469)">
<path opacity="0.76" d="M190.027 123.528C168.771 127.553 151.265 138.094 140.814 151.949C139.131 154.18 137.164 156.344 134.912 158.409C116.948 174.89 86.4032 180.171 60.6164 172.734C57.9254 171.958 55.1001 171.744 52.3257 172.128C34.7962 174.551 15.9581 171.739 0.791229 163.25C-9.00032 157.768 -15.9597 150.654 -19.9244 142.863C-22.8826 137.05 -27.5721 131.912 -33.7003 129.679C-37.3001 128.367 -40.7773 126.791 -44.0798 124.943C-53.2015 119.838 -59.8641 113.312 -63.937 106.142C-66.5037 101.621 -71.2836 97.931 -77.2392 95.5685C-80.8357 94.1422 -84.2938 92.4461 -87.5675 90.4691C-112.743 75.2422 -117.184 46.5727 -97.2886 27.7553C-85.4235 16.532 -67.8101 10.3477 -49.6819 9.65379C-42.6197 9.38394 -36.1952 6.48726 -32.9984 1.9605C-31.1541 -0.64982 -28.9332 -3.17203 -26.3281 -5.56757C-4.57268 -25.525 35.6491 -29.066 63.4984 -13.4756L63.5906 -13.4206C68.9546 -10.4137 76.1782 -9.70884 82.4489 -11.6198C103.167 -17.9308 127.919 -16.2071 146.916 -5.57308C156.622 -0.143171 163.538 6.90028 167.519 14.6046C172.683 24.6163 183.341 32.6235 197.189 36.5555C203.568 38.3673 209.662 40.9556 215.202 44.3424C240.631 59.8887 244.95 87.242 225.046 106.483C216.024 115.218 203.552 120.967 190.027 123.528Z" fill="url(#paint0_linear_1529_7469)"/>
</g>
</g>
<g style="mix-blend-mode:multiply">
<g opacity="0.76">
<mask id="mask1_1529_7469" style="mask-type:luminance" maskUnits="userSpaceOnUse" x="0" y="0" width="240" height="138">
<path d="M16 0H224C232.837 0 240 7.16344 240 16V122C240 130.837 232.837 138 224 138H16C7.16344 138 0 130.837 0 122V16C0 7.16344 7.16344 0 16 0Z" fill="white"/>
</mask>
<g mask="url(#mask1_1529_7469)">
<path opacity="0.76" d="M-82.0617 92.8408C-71.784 82.2269 -66.581 55.072 -66.9608 40.3024C-66.9682 40.016 -66.9719 39.7289 -66.9719 39.4412C-66.9719 18.6786 -47.7192 1.14985 -21.3116 -4.49845C-18.1369 -5.17748 -15.1825 -6.64093 -12.6255 -8.64134C-0.926514 -17.7939 15.8839 -23.5369 34.5661 -23.5369C49.1613 -23.5369 62.611 -20.0357 73.3743 -14.1435C77.615 -11.8221 82.5384 -10.919 87.2971 -11.7721C92.2678 -12.6631 97.4697 -13.1396 102.829 -13.1396C114.403 -13.1396 125.261 -10.9368 134.629 -7.08194C140.454 -4.6864 147.293 -3.81078 153.917 -4.58727C158.059 -5.07189 162.34 -5.27564 166.712 -5.15449C199.634 -4.25685 227.76 16.3724 228.244 39.9754C228.536 54.0513 219.967 66.6954 206.281 75.2422C200.948 78.574 198.373 83.69 199.741 88.6628C200.533 91.532 200.948 94.5002 200.948 97.5346C200.948 122.861 172.299 143.397 136.949 143.397C136.911 143.397 136.865 143.397 136.826 143.397C129.987 143.386 123.732 146.007 120.42 150.292C109.515 164.406 88.5281 173.966 64.4135 173.966C47.9104 173.966 32.8745 169.489 21.5271 162.137C15.2582 158.076 7.16554 156.967 0.172272 159.592C-9.46179 163.207 -20.5385 165.116 -32.2831 164.753C-65.6732 163.718 -92.5773 144.069 -93.4226 120.124C-93.7749 109.973 -89.5247 100.548 -82.0617 92.8408Z" fill="url(#paint1_linear_1529_7469)"/>
</g>
</g>
</g>
<g opacity="0.7">
<path d="M18.0413 138L77.9517 137.667L96.6108 137.662L102.793 137.659L121.486 137.655H195.244C195.244 137.655 222.236 116.421 205.562 92.8004C183.927 70.1578 173.407 88.5977 166.756 56.7259C150.016 -23.5014 -15.4877 23.193 27.9227 91.4632C43.5531 116.045 7.24419 102.98 18.0413 138Z" fill="#FFDF92"/>
<g opacity="0.5">
<path d="M131.704 137.675H35.7402V51.9027C35.7402 48.1159 38.7186 45.0344 42.3806 45.0344H126.13C129.204 45.0344 131.703 47.6208 131.703 50.7991V137.675H131.704ZM37.2495 136.114H130.195V50.7999C130.195 48.4822 128.372 46.5963 126.131 46.5963H42.3798C39.5506 46.5963 37.2495 48.9772 37.2495 51.9027V136.114Z" fill="#C5A24F"/>
<path d="M130.947 63.0176H36.4922V64.7538H130.947V63.0176Z" fill="#C5A24F"/>
<path d="M130.947 76.9973H36.4922V78.7336H130.947V76.9973Z" fill="#C5A24F"/>
<path d="M130.947 90.978H36.4922V92.7143H130.947V90.978Z" fill="#C5A24F"/>
<path d="M130.947 105.01H36.4922V106.746H130.947V105.01Z" fill="#C5A24F"/>
<path d="M57.0888 105.01H59.4502V95.931H57.0888V105.01Z" fill="#C5A24F"/>
<path d="M54.5013 105.01H56.5469V95.1424H54.5013V105.01Z" fill="#C5A24F"/>
<path d="M51.3035 104.85L53.334 105.107L54.4917 95.3121L52.4612 95.0554L51.3035 104.85Z" fill="#E1C070"/>
<path d="M122.997 105.01H125.357V95.931H122.997V105.01Z" fill="#C5A24F"/>
<path d="M120.405 105.01H122.45V95.1424H120.405V105.01Z" fill="#C5A24F"/>
<path d="M117.201 104.857L119.231 105.114L120.389 95.3189L118.359 95.0622L117.201 104.857Z" fill="#E1C070"/>
<path d="M39.8157 105.01H49.46V103.234H39.8157V105.01Z" fill="#FFDF92"/>
<path d="M38.637 103.234H48.2812V102.011H38.637V103.234Z" fill="#E1C070"/>
<path d="M39.5862 102.014H48.833V100.791H39.5862V102.014Z" fill="#E1C070"/>
<path d="M39.3622 100.792H47.7129V99.8606H39.3622V100.792Z" fill="#C5A24F"/>
<path d="M86.1126 105.01H95.7568V103.234H86.1126V105.01Z" fill="#E1C070"/>
<path d="M84.9339 103.234H94.5781V102.011H84.9339V103.234Z" fill="#E1C070"/>
<path d="M85.8753 102.014H95.1221V100.791H85.8753V102.014Z" fill="#E1C070"/>
<path d="M85.6513 100.792H94.002V99.8606H85.6513V100.792Z" fill="#C5A24F"/>
<path d="M84.6126 99.8611H94.2568V98.6387H84.6126V99.8611Z" fill="#E1C070"/>
<path d="M85.5579 98.6382H94.8047V97.4158H85.5579V98.6382Z" fill="#E1C070"/>
<path d="M85.3349 97.418H93.6855V96.4866H85.3349V97.418Z" fill="#C5A24F"/>
<path d="M78.878 104.971H80.5234V95.1428H78.878V104.971Z" fill="#C1D9F4"/>
<path d="M99.0957 104.971H100.741V94.6925H99.0957V104.971Z" fill="#C1D9F4"/>
<path d="M104.075 104.971H105.721V95.1428H104.075V104.971Z" fill="#C1D9F4"/>
<path d="M76.7992 104.971H78.8789V94.3318H76.7992V104.971Z" fill="#E4EEF9"/>
<path d="M106.06 104.971H108.14V94.3318H106.06V104.971Z" fill="#E4EEF9"/>
<path d="M74.7289 104.971H76.8086V94.8389H74.7289V104.971Z" fill="#E1C070"/>
<path d="M96.0588 104.965L98.1074 104.595L96.1963 93.2688L94.1476 93.6386L96.0588 104.965Z" fill="#E1C070"/>
<path d="M72.641 104.97H74.7207V96.3921H72.641V104.97Z" fill="#C5A24F"/>
<path d="M108.777 104.97H110.856V96.3921H108.777V104.97Z" fill="#C5A24F"/>
<path d="M70.5668 104.97H72.6465V95.9306H70.5668V104.97Z" fill="#FFDF92"/>
<path d="M68.1557 104.97H70.2354V95.9306H68.1557V104.97Z" fill="#E1C070"/>
<path d="M111.146 104.97H113.226V95.9306H111.146V104.97Z" fill="#E1C070"/>
<path d="M65.6889 104.971H67.7686V95.1428H65.6889V104.971Z" fill="#AFCDFB"/>
<path d="M101.782 104.971H103.861V95.1428H101.782V104.971Z" fill="#AFCDFB"/>
<path d="M106.912 53.9778H104.551V63.0566H106.912V53.9778Z" fill="#C5A24F"/>
<path d="M109.505 53.1895H107.459V63.0568H109.505V53.1895Z" fill="#C5A24F"/>
<path d="M111.528 53.1087L109.497 53.3655L110.655 63.1601L112.685 62.9033L111.528 53.1087Z" fill="#E1C070"/>
<path d="M68.9512 67.9204H66.5898V76.9992H68.9512V67.9204Z" fill="#C5A24F"/>
<path d="M71.5378 67.1313H69.4922V76.9987H71.5378V67.1313Z" fill="#C5A24F"/>
<path d="M73.5812 67.0319L71.5508 67.2891L72.7101 77.0834L74.7405 76.8263L73.5812 67.0319Z" fill="#E1C070"/>
<path d="M41.004 53.9778H38.6426V63.0566H41.004V53.9778Z" fill="#C5A24F"/>
<path d="M43.5954 53.1895H41.5498V63.0568H43.5954V53.1895Z" fill="#C5A24F"/>
<path d="M45.6193 53.1036L43.5889 53.3604L44.7465 63.1549L46.777 62.8982L45.6193 53.1036Z" fill="#E1C070"/>
<path d="M124.185 61.2812H114.541V63.0567H124.185V61.2812Z" fill="#FFDF92"/>
<path d="M125.36 60.0605H115.716V61.2829H125.36V60.0605Z" fill="#E1C070"/>
<path d="M124.415 58.8396H115.168V60.062H124.415V58.8396Z" fill="#E1C070"/>
<path d="M124.639 57.9065H116.288V58.8379H124.639V57.9065Z" fill="#C5A24F"/>
<path d="M77.8874 61.2812H68.2432V63.0567H77.8874V61.2812Z" fill="#E1C070"/>
<path d="M79.0681 60.0605H69.4238V61.2829H79.0681V60.0605Z" fill="#E1C070"/>
<path d="M78.1218 58.8396H68.875V60.062H78.1218V58.8396Z" fill="#E1C070"/>
<path d="M78.3458 57.9065H69.9951V58.8379H78.3458V57.9065Z" fill="#C5A24F"/>
<path d="M79.3874 56.6858H69.7432V57.9082H79.3874V56.6858Z" fill="#E1C070"/>
<path d="M78.4392 55.4651H69.1924V56.6875H78.4392V55.4651Z" fill="#E1C070"/>
<path d="M78.6602 54.5332H70.3096V55.4646H78.6602V54.5332Z" fill="#C5A24F"/>
<path d="M85.123 53.1895H83.4775V63.0176H85.123V53.1895Z" fill="#D3C4A0"/>
<path d="M64.9101 52.7385H63.2646V63.017H64.9101V52.7385Z" fill="#D3C4A0"/>
<path d="M59.9306 53.1895H58.2852V63.0176H59.9306V53.1895Z" fill="#D3C4A0"/>
<path d="M87.1998 52.3787H85.1201V63.0178H87.1998V52.3787Z" fill="#FFF7E4"/>
<path d="M57.9351 52.3787H55.8555V63.0178H57.9351V52.3787Z" fill="#FFF7E4"/>
<path d="M89.2769 52.8857H87.1973V63.0178H89.2769V52.8857Z" fill="#E1C070"/>
<path d="M69.865 51.6888L67.8164 51.3186L65.907 62.6453L67.9556 63.0155L69.865 51.6888Z" fill="#E1C070"/>
<path d="M108.077 75.2227H98.4326V76.9981H108.077V75.2227Z" fill="#E1C070"/>
<path d="M109.257 74.002H99.6123V75.2243H109.257V74.002Z" fill="#E1C070"/>
<path d="M108.311 72.7812H99.0645V74.0036H108.311V72.7812Z" fill="#E1C070"/>
<path d="M108.535 71.8486H100.185V72.78H108.535V71.8486Z" fill="#C5A24F"/>
<path d="M109.578 70.6272H99.9336V71.8496H109.578V70.6272Z" fill="#E1C070"/>
<path d="M108.629 69.407H99.3818V70.6294H108.629V69.407Z" fill="#E1C070"/>
<path d="M108.856 68.4739H100.505V69.4052H108.856V68.4739Z" fill="#C5A24F"/>
<path d="M100.045 65.6289L97.9961 65.259L96.0849 76.5854L98.1336 76.9552L100.045 65.6289Z" fill="#E1C070"/>
<path d="M91.358 54.4387H89.2783V63.0169H91.358V54.4387Z" fill="#C5A24F"/>
<path d="M55.2232 54.4387H53.1436V63.0169H55.2232V54.4387Z" fill="#C5A24F"/>
<path d="M93.4351 53.9778H91.3555V63.0174H93.4351V53.9778Z" fill="#FFDF92"/>
<path d="M95.8453 53.9778H93.7656V63.0174H95.8453V53.9778Z" fill="#E1C070"/>
<path d="M52.8492 53.9778H50.7695V63.0174H52.8492V53.9778Z" fill="#E1C070"/>
<path d="M92.7799 66.3589H90.7002V76.998H92.7799V66.3589Z" fill="#FFF7E4"/>
<path d="M90.0582 68.4199H87.9785V76.9981H90.0582V68.4199Z" fill="#C5A24F"/>
<path d="M87.6949 67.9585H85.6152V76.9981H87.6949V67.9585Z" fill="#E1C070"/>
<path d="M80.7457 67.9585H78.666V76.9981H80.7457V67.9585Z" fill="#E1C070"/>
<path d="M77.8463 67.9585H75.7666V76.9981H77.8463V67.9585Z" fill="#E1C070"/>
<path d="M45.1402 66.3589H43.0605V76.998H45.1402V66.3589Z" fill="#FFF7E4"/>
<path d="M47.2009 66.2645L45.1367 66.5259L46.3867 77.0863L48.4509 76.8249L47.2009 66.2645Z" fill="#FFF7E4"/>
<path d="M42.4176 68.4199H40.3379V76.9981H42.4176V68.4199Z" fill="#C5A24F"/>
<path d="M40.0494 67.9585H37.9697V76.9981H40.0494V67.9585Z" fill="#E1C070"/>
<path d="M98.3111 53.1895H96.2314V63.0176H98.3111V53.1895Z" fill="#F4ECD8"/>
<path d="M75.7275 81.1501H74.082V90.9783H75.7275V81.1501Z" fill="#D3C4A0"/>
<path d="M77.8111 80.3394H75.7314V90.9785H77.8111V80.3394Z" fill="#FFF7E4"/>
<path d="M79.8814 80.8464H77.8018V90.9785H79.8814V80.8464Z" fill="#E1C070"/>
<path d="M81.9625 82.4004H79.8828V90.9786H81.9625V82.4004Z" fill="#C5A24F"/>
<path d="M84.0387 81.939H81.959V90.9786H84.0387V81.939Z" fill="#FFDF92"/>
<path d="M86.4488 81.939H84.3691V90.9786H86.4488V81.939Z" fill="#E1C070"/>
<path d="M88.9156 81.1501H86.8359V90.9783H88.9156V81.1501Z" fill="#F4ECD8"/>
<path d="M113.784 67.1692H111.704V76.9974H113.784V67.1692Z" fill="#F4ECD8"/>
<path d="M116.049 67.1692H113.97V76.9974H116.049V67.1692Z" fill="#F4ECD8"/>
<path d="M62.2183 53.1895H60.1387V63.0176H62.2183V53.1895Z" fill="#F4ECD8"/>
<path d="M118.727 89.2461H109.083V91.0216H118.727V89.2461Z" fill="#E1C070"/>
<path d="M119.908 88.0259H110.264V89.2483H119.908V88.0259Z" fill="#E1C070"/>
<path d="M118.963 86.8052H109.716V88.0276H118.963V86.8052Z" fill="#E1C070"/>
<path d="M119.181 85.8716H110.83V86.8029H119.181V85.8716Z" fill="#C5A24F"/>
<path d="M120.223 84.6509H110.579V85.8733H120.223V84.6509Z" fill="#E1C070"/>
<path d="M119.278 83.4302H110.031V84.6526H119.278V83.4302Z" fill="#E1C070"/>
<path d="M119.501 82.4983H111.15V83.4297H119.501V82.4983Z" fill="#C5A24F"/>
<path d="M105.745 80.7034H104.1V90.9818H105.745V80.7034Z" fill="#D3C4A0"/>
<path d="M100.762 81.1541H99.1162V90.9822H100.762V81.1541Z" fill="#D3C4A0"/>
<path d="M98.776 80.3438H96.6963V90.9829H98.776V80.3438Z" fill="#FFF7E4"/>
<path d="M110.701 79.6533L108.652 79.2834L106.741 90.6098L108.79 90.9797L110.701 79.6533Z" fill="#E1C070"/>
<path d="M96.0592 82.4045H93.9795V90.9827H96.0592V82.4045Z" fill="#C5A24F"/>
<path d="M93.69 81.9429H91.6104V90.9825H93.69V81.9429Z" fill="#E1C070"/>
<path d="M71.8326 80.3438H69.7529V90.9829H71.8326V80.3438Z" fill="#FFF7E4"/>
<path d="M69.1158 82.4045H67.0361V90.9827H69.1158V82.4045Z" fill="#C5A24F"/>
<path d="M66.7467 81.9429H64.667V90.9825H66.7467V81.9429Z" fill="#E1C070"/>
<path d="M63.5055 80.3438H61.4258V90.9829H63.5055V80.3438Z" fill="#FFF7E4"/>
<path d="M60.7984 82.4045H58.7188V90.9827H60.7984V82.4045Z" fill="#C5A24F"/>
<path d="M58.4244 81.9429H56.3447V90.9825H58.4244V81.9429Z" fill="#E1C070"/>
<path d="M103.054 81.1541H100.975V90.9822H103.054V81.1541Z" fill="#F4ECD8"/>
</g>
<path d="M154.509 46.5173H142.312C141.75 46.5173 141.294 46.9889 141.294 47.5706V59.7469C141.294 60.3286 141.75 60.8001 142.312 60.8001H154.509C155.071 60.8001 155.527 60.3286 155.527 59.7469V47.5706C155.527 46.9889 155.071 46.5173 154.509 46.5173Z" fill="#FFFCF4"/>
<path d="M153.98 47.1357H142.84C142.327 47.1357 141.91 47.5665 141.91 48.0978V59.2192C141.91 59.7506 142.327 60.1813 142.84 60.1813H153.98C154.494 60.1813 154.91 59.7506 154.91 59.2192V48.0978C154.91 47.5665 154.494 47.1357 153.98 47.1357Z" fill="#FFF4DB"/>
<path d="M148.111 48.4386C148.111 48.2701 148.244 48.1343 148.406 48.1343C148.569 48.1343 148.701 48.2709 148.701 48.4386C148.701 48.6064 148.569 48.7429 148.406 48.7429C148.244 48.7429 148.111 48.6064 148.111 48.4386Z" fill="#E1C070"/>
<path d="M150.489 48.8706C150.568 48.7237 150.748 48.6709 150.891 48.7524C151.034 48.8339 151.085 49.0192 151.006 49.167C150.927 49.3139 150.747 49.3667 150.605 49.2852C150.462 49.2037 150.411 49.0184 150.49 48.8706H150.489Z" fill="#E1C070"/>
<path d="M152.53 50.5454C152.667 50.4543 152.849 50.4951 152.938 50.6364C153.026 50.7778 152.986 50.9663 152.849 51.0574C152.712 51.1485 152.53 51.1077 152.442 50.9663C152.353 50.825 152.393 50.6364 152.53 50.5454Z" fill="#E1C070"/>
<path d="M153.54 53.1372C153.703 53.1372 153.835 53.2738 153.835 53.4415C153.835 53.6093 153.703 53.7459 153.54 53.7459C153.377 53.7459 153.245 53.6093 153.245 53.4415C153.245 53.2738 153.377 53.1372 153.54 53.1372Z" fill="#E1C070"/>
<path d="M153.028 56.1457C153.143 56.2647 153.143 56.4572 153.028 56.5762C152.913 56.6952 152.726 56.6952 152.611 56.5762C152.496 56.4572 152.496 56.2647 152.611 56.1457C152.726 56.0266 152.913 56.0266 153.028 56.1457Z" fill="#E1C070"/>
<path d="M151.17 58.0666C151.285 58.1856 151.285 58.3781 151.17 58.4971C151.054 58.6161 150.868 58.6161 150.753 58.4971C150.637 58.3781 150.637 58.1856 150.753 58.0666C150.868 57.9475 151.054 57.9475 151.17 58.0666Z" fill="#E1C070"/>
<path d="M148.111 59.0548C148.111 58.8863 148.244 58.7505 148.406 58.7505C148.569 58.7505 148.701 58.8871 148.701 59.0548C148.701 59.2226 148.569 59.3592 148.406 59.3592C148.244 59.3592 148.111 59.2226 148.111 59.0548Z" fill="#E1C070"/>
<path d="M146.319 48.8706C146.24 48.7237 146.061 48.6709 145.918 48.7524C145.776 48.8339 145.725 49.0192 145.804 49.167C145.883 49.3139 146.062 49.3667 146.205 49.2852C146.348 49.2037 146.399 49.0184 146.32 48.8706H146.319Z" fill="#E1C070"/>
<path d="M144.286 50.5461C144.149 50.4551 143.966 50.4958 143.878 50.6372C143.79 50.7786 143.829 50.9671 143.966 51.0581C144.103 51.1492 144.286 51.1084 144.374 50.9671C144.462 50.8257 144.423 50.6372 144.286 50.5461Z" fill="#E1C070"/>
<path d="M143.27 53.1379C143.107 53.1379 142.976 53.2745 142.976 53.4423C142.976 53.61 143.108 53.7466 143.27 53.7466C143.433 53.7466 143.565 53.61 143.565 53.4423C143.565 53.2745 143.433 53.1379 143.27 53.1379Z" fill="#E1C070"/>
<path d="M143.783 56.1452C143.667 56.2642 143.667 56.4567 143.783 56.5757C143.898 56.6947 144.085 56.6947 144.2 56.5757C144.315 56.4567 144.315 56.2642 144.2 56.1452C144.085 56.0262 143.898 56.0262 143.783 56.1452Z" fill="#E1C070"/>
<path d="M145.634 58.0661C145.519 58.1851 145.519 58.3776 145.634 58.4966C145.75 58.6156 145.936 58.6156 146.052 58.4966C146.167 58.3776 146.167 58.1851 146.052 58.0661C145.936 57.9471 145.75 57.9471 145.634 58.0661Z" fill="#E1C070"/>
<path d="M148.319 53.4432C148.319 53.2747 148.452 53.1389 148.614 53.1389C148.777 53.1389 148.909 53.2755 148.909 53.4432C148.909 53.611 148.777 53.7476 148.614 53.7476C148.452 53.7476 148.319 53.611 148.319 53.4432Z" fill="#E1C070"/>
<path d="M148.657 49.6338H148.575V53.4438H148.657V49.6338Z" fill="#E1C070"/>
<path d="M150.458 51.7577L148.505 53.3435L148.654 53.5397L150.607 51.9539L150.458 51.7577Z" fill="#E1C070"/>
<path d="M170.297 128.457C170.297 128.457 183.784 115.188 187.569 118.273C191.354 121.358 170.297 128.457 170.297 128.457Z" fill="#FFF4DB"/>
<path d="M169.314 131.009C169.314 131.009 194.408 119.39 200.346 125.533C206.283 131.677 193.459 130.919 188.711 130.232C183.962 129.545 169.315 131.009 169.315 131.009H169.314Z" fill="#FFF4DB"/>
<path d="M168.261 128.165C168.261 128.165 168.379 127.512 168.54 126.555C168.854 124.689 169.331 121.67 169.414 120.098C169.54 117.72 171.39 116.031 173.42 118.452C175.45 120.873 169.042 127.512 169.042 127.512L168.262 128.164L168.261 128.165Z" fill="#FFF4DB"/>
<path d="M175.39 82.7346C173.555 77.7649 165.374 80.2305 165.374 80.2305C165.374 80.2305 160.586 89.762 158.96 90.1467C157.334 90.5314 161.516 81.1711 161.516 81.1711C158.295 81.1846 150.559 86.0767 150.559 86.0767C150.559 86.0767 152.09 96.4543 150.423 96.4136C148.756 96.372 149.52 87.1532 149.52 87.1532C146.526 88.4328 144.008 92.4588 144.008 92.4588C140.997 98.9016 149.152 102.568 149.152 102.568C149.152 102.568 149.607 106.176 147.85 110.552C147.85 110.552 147.437 111.37 147.068 112.725L147.911 112.637C147.956 112.396 148.01 112.162 148.073 111.937C148.073 111.935 148.073 111.934 148.074 111.933C148.075 111.93 148.076 111.926 148.078 111.923C148.122 111.782 148.187 111.582 148.267 111.339C148.267 111.339 148.267 111.337 148.267 111.336C148.473 110.788 148.609 110.386 148.692 110.097C148.692 110.096 148.692 110.095 148.692 110.094C149.304 108.379 150.206 106.134 150.903 105.61C150.903 105.61 150.796 105.484 150.684 105.229C150.754 105.351 150.826 105.477 150.903 105.61C152.655 108.653 159.911 108.435 163.841 107.165C167.772 105.895 165.908 104.906 163.562 103.231C161.216 101.557 156.736 102.529 155.326 101.924C153.915 101.318 155.798 100.369 158.494 100.304C161.19 100.237 162.798 102.866 167.162 102.841C171.526 102.816 173.999 94.0639 173.999 94.0639C171.108 95.3331 165.591 94.1878 165.281 93.145C164.972 92.1021 172.906 91.3823 174.11 90.9344C175.314 90.4866 177.226 87.7066 175.39 82.737V82.7346Z" fill="#FFF4DB"/>
<path d="M43.5519 126.621C39.7732 121.842 46.8929 114.746 46.8929 114.746C46.8929 114.746 58.9333 115.258 60.2455 113.787C61.5576 112.315 50.0337 111.27 50.0337 111.27C51.9049 107.923 61.13 102.689 61.13 102.689C61.13 102.689 70.3482 110.271 71.2699 108.511C72.1916 106.75 62.7762 102.228 62.7762 102.228C65.7492 99.8492 71.1215 99.5493 71.1215 99.5493C79.1296 100.131 77.9937 110.737 77.9937 110.737C77.9937 110.737 81.2436 113.293 86.5168 113.989C86.5168 113.989 87.5506 114.03 89.0816 114.428L88.5102 115.254C88.2496 115.163 87.9914 115.085 87.7354 115.02C87.7339 115.019 87.7323 115.018 87.7308 115.019C87.7269 115.018 87.7231 115.017 87.72 115.017C87.5576 114.982 87.3256 114.933 87.0419 114.877H87.0411C87.0411 114.877 87.0403 114.877 87.0395 114.877C86.3877 114.776 85.9168 114.685 85.5874 114.605C85.5867 114.605 85.5851 114.605 85.5844 114.604C83.5624 114.251 80.8562 113.895 79.9446 114.319C79.9446 114.319 79.8835 114.136 79.7002 113.871C79.7783 114.014 79.8595 114.163 79.9446 114.319C81.8961 117.899 77.4973 125.329 73.9932 128.689C70.489 132.05 70.6026 129.539 70.3258 126.129C70.049 122.719 73.5803 118.616 73.8045 116.798C74.0287 114.98 72.0191 116.393 70.3985 119.162C68.7786 121.932 70.4093 125.122 67.8678 129.653C65.3262 134.183 55.3797 131.71 55.3797 131.71C58.2831 129.431 60.3514 123.025 59.5148 122.101C58.6782 121.177 53.4002 129.024 52.269 130.019C51.1386 131.014 47.329 131.402 43.5503 126.623L43.5519 126.621Z" fill="#FFF4DB"/>
<path d="M75.0672 105.658H113.462C117.014 105.658 119.896 108.64 119.896 112.312V118.211C119.896 121.967 116.948 125.017 113.316 125.017H75.0664V105.658H75.0672Z" fill="#FCECDB"/>
<path d="M153.329 113.623V116.535C153.329 118.092 153.03 119.549 152.508 120.801C151.457 123.322 149.504 125.016 147.267 125.016H73.8635C73.3779 125.016 72.9844 124.466 72.9844 123.787V123.351C72.9844 122.672 73.3779 122.122 73.8635 122.122H117.354C118.179 122.122 118.931 121.609 119.232 120.816C119.234 120.811 119.236 120.806 119.238 120.801C119.657 119.697 119.894 118.437 119.894 117.1V113.398C119.894 112.717 119.831 112.056 119.713 111.428C119.71 111.418 119.709 111.407 119.706 111.396C119.389 109.738 117.966 108.554 116.332 108.554H73.8635C73.3779 108.554 72.9844 108.003 72.9844 107.324V106.889C72.9844 106.209 73.3779 105.659 73.8635 105.659H147.637C150.237 105.659 152.429 108.097 153.11 111.429C153.253 112.126 153.329 112.863 153.329 113.623V113.623Z" fill="#13857E"/>
<path d="M75.0703 115.337L80.5052 115.663L75.0703 115.858V115.337Z" fill="#F4D2B8"/>
<path d="M75.0703 118.375L88.0007 118.7L75.0703 118.895V118.375Z" fill="#F4D2B8"/>
<path d="M79.96 73.7779H111.696C114.662 73.7779 117.069 76.2683 117.069 79.3362V84.4074C117.069 87.5449 114.607 90.0921 111.573 90.0921H79.96V73.7771V73.7779Z" fill="#FCECDB"/>
<path d="M144.746 80.4901V82.9445C144.746 84.2561 144.498 85.4846 144.065 86.5402C143.196 88.6644 141.579 90.0927 139.728 90.0927H78.9649C78.5628 90.0927 78.2373 89.6289 78.2373 89.0571V88.6892C78.2373 88.1174 78.5628 87.6535 78.9649 87.6535H116.006C116.203 87.3096 116.378 86.9369 116.525 86.541C116.872 85.6101 117.068 84.5489 117.068 83.422V80.3022C117.068 79.7287 117.016 79.1713 116.918 78.6419C116.752 77.7437 116.456 76.9216 116.059 76.2194H78.9649C78.5628 76.2194 78.2373 75.7556 78.2373 75.1821V74.8158C78.2373 74.2432 78.5628 73.7786 78.9649 73.7786H140.033C142.185 73.7786 144 75.8339 144.563 78.6419C144.682 79.2297 144.745 79.8503 144.745 80.4917L144.746 80.4901Z" fill="#6BBEB9"/>
<path d="M79.96 81.9351L84.4585 82.209L79.96 82.3744V81.9351Z" fill="#F4D2B8"/>
<path d="M79.96 84.4944L90.6635 84.7684L79.96 84.9329V84.4944Z" fill="#F4D2B8"/>
<path d="M127.485 137.673H83.8624C80.5082 137.673 77.7849 134.857 77.7849 131.387V130.887C77.7849 127.628 80.3419 124.984 83.492 124.984H127.485V137.673H127.485Z" fill="#54B1AB"/>
<path d="M174.883 137.673H125.198C121.923 137.673 119.263 134.923 119.263 131.535V130.985C119.263 127.672 121.864 124.984 125.066 124.984H174.882V137.673H174.883Z" fill="#FCECDB"/>
<path d="M176.579 137.673H115.963C115.477 137.673 115.081 137.265 115.081 136.762V136.686C115.081 136.183 115.477 135.775 115.963 135.775H176.579C177.066 135.775 177.461 136.183 177.461 136.686V136.762C177.461 137.265 177.066 137.673 176.579 137.673Z" fill="#54B1AB"/>
<path d="M176.579 126.881L115.963 126.881C115.477 126.881 115.081 126.473 115.081 125.97V125.894C115.081 125.391 115.477 124.983 115.963 124.983L176.579 124.983C177.066 124.983 177.461 125.391 177.461 125.894V125.97C177.461 126.473 177.066 126.881 176.579 126.881Z" fill="#54B1AB"/>
<path d="M174.883 131.329L168.14 131.542L174.883 131.67V131.329Z" fill="#F4D2B8"/>
<path d="M174.884 128.408L158.842 128.621L174.884 128.749V128.408Z" fill="#F4D2B8"/>
<path d="M159.004 128.579C159.004 128.579 159.691 129.124 159.919 130.02C159.96 130.177 159.985 130.345 159.991 130.521C160.028 131.712 159.991 134.407 159.991 134.407L162.02 133.06L164.044 134.407V130.755C164.044 130.064 163.87 129.392 163.548 128.952C163.392 128.74 163.202 128.579 162.987 128.579H159.004Z" fill="#FF647C"/>
<path d="M159.004 128.579C159.004 128.579 159.691 129.124 159.919 130.02L163.987 130.074C163.987 130.074 163.828 128.79 162.988 128.579H159.005H159.004Z" fill="#EF3D56"/>
<path d="M161.395 105.657H112.199C108.566 105.657 105.617 102.606 105.617 98.8492V96.7475C105.617 93.0734 108.502 90.0911 112.053 90.0911H161.395V105.657Z" fill="#FCECDB"/>
<path d="M105.595 96.1307V99.4816C105.599 99.9959 105.72 100.485 105.936 100.932C106.321 101.731 107.008 102.393 107.871 102.818C108.534 103.144 109.301 103.329 110.116 103.329H162.867C163.485 103.329 163.986 103.762 163.986 104.296V104.691C163.986 105.225 163.485 105.658 162.867 105.658H71.7397C69.1247 105.658 66.8143 104.536 65.4179 102.818C64.538 101.736 64.0215 100.417 64.0215 98.993V96.3506C64.0215 95.3749 64.2797 94.452 64.7413 93.629C65.9128 91.5361 68.3948 90.0925 71.2672 90.0925H162.866C163.484 90.0925 163.985 90.5244 163.985 91.0586V91.4537C163.985 91.9879 163.484 92.4206 162.866 92.4206H109.954C108.69 92.4206 107.545 92.8861 106.746 93.629C106.4 93.9514 106.119 94.3256 105.92 94.7367C105.714 95.1678 105.599 95.6364 105.595 96.1307Z" fill="#639C98"/>
<path d="M161.396 97.8743L154.634 98.1355L161.396 98.2928V97.8743Z" fill="#F4D2B8"/>
<path d="M161.395 94.292L145.308 94.5532L161.395 94.7105V94.292Z" fill="#F4D2B8"/>
<path d="M145.47 94.502C145.47 94.502 146.531 94.9954 146.883 95.8072C146.945 95.9487 146.985 96.1007 146.994 96.2606C147.052 97.3387 146.994 99.7779 146.994 99.7779L150.128 98.5583L153.255 99.7779V96.4717C153.255 95.8463 152.987 95.2385 152.489 94.8402C152.248 94.6475 151.955 94.502 151.623 94.502H145.471H145.47Z" fill="#F99746"/>
<path d="M145.47 94.502C145.47 94.502 146.531 94.9954 146.883 95.8072L153.165 95.8551C153.165 95.8551 152.919 94.6931 151.623 94.502H145.471H145.47Z" fill="#ED7D2B"/>
<path d="M100.122 51.4962C100.122 51.4962 101.263 53.2437 101.914 56.9162C102.484 60.1328 102.985 61.3204 103.808 61.9802C104.632 62.64 109.22 64.5874 109.22 64.5874L108.876 65.4183C108.876 65.4183 102.152 64.4714 101.396 63.3086C100.641 62.1458 97.7615 55.2775 97.985 53.6955C98.2084 52.1136 100.122 51.4946 100.122 51.4946V51.4962Z" fill="#F4A269"/>
<path d="M116.586 89.8673C116.526 90.5455 117.439 90.7102 118.496 90.7654C119.554 90.8198 119.234 91.0437 120.684 91.3157C122.133 91.5868 122.713 91.1773 122.819 90.9742C122.912 90.7942 122.238 90.5135 121.52 90.196C121.43 90.156 121.339 90.1152 121.249 90.0744C120.441 89.7066 119.987 88.9572 119.358 88.2622C118.761 87.604 118.194 85.4959 118.194 85.4959L116.225 85.0608C116.225 85.0608 116.777 86.9578 116.969 87.768C117.082 88.2446 116.916 88.7772 116.767 89.1827C116.688 89.4034 116.607 89.629 116.586 89.8681V89.8673Z" fill="#FFB27D"/>
<path d="M118.494 90.7648C119.552 90.8192 119.232 91.0432 120.681 91.3151C122.13 91.5862 122.711 91.1767 122.816 90.9736C122.91 90.7936 122.235 90.5129 121.518 90.1954L121.507 90.2082C121.507 90.2082 120.488 90.5657 119.312 90.2354C118.353 89.9659 117.426 89.3733 116.766 89.1821C116.686 89.4029 116.606 89.6284 116.585 89.8675C116.525 90.5457 117.438 90.7105 118.495 90.7656L118.494 90.7648Z" fill="#C65447"/>
<path d="M96.9779 65.712C96.9779 65.712 110.064 64.6931 112.529 66.3014C114.992 67.9097 118.944 86.6431 118.944 86.6431C118.944 86.6431 118.7 86.8455 118.155 86.9062C117.649 86.963 116.533 86.6551 116.533 86.6551C116.533 86.6551 110.855 78.2729 110.454 76.1616C110.054 74.0502 110.152 72.166 109.241 72.1156C108.33 72.0652 96.9763 73.5432 95.259 70.4137C93.5417 67.2843 94.9613 64.186 94.9613 64.186L96.9779 65.712Z" fill="#EF3D56"/>
<path d="M111.582 92.0416C111.521 92.7198 112.434 92.8846 113.491 92.9398C114.549 92.9941 114.229 93.2181 115.679 93.49C117.128 93.7611 117.709 93.3516 117.814 93.1485C117.907 92.9685 117.233 92.6878 116.515 92.3703C116.425 92.3303 116.335 92.2896 116.244 92.2488C115.436 91.8809 114.982 91.1315 114.353 90.4365C113.756 89.7783 113.189 87.6702 113.189 87.6702L111.22 87.2351C111.22 87.2351 111.773 89.1321 111.964 89.9423C112.077 90.4189 111.91 90.9516 111.763 91.3562C111.683 91.577 111.602 91.8025 111.582 92.0416Z" fill="#FFB27D"/>
<path d="M113.493 92.9389C114.551 92.9933 114.231 93.2172 115.68 93.4891C117.129 93.7603 117.71 93.3508 117.815 93.1477C117.909 92.9677 117.235 92.687 116.517 92.3695L116.506 92.3823C116.506 92.3823 115.487 92.7398 114.311 92.4095C113.352 92.14 112.425 91.5473 111.765 91.3562C111.685 91.5769 111.605 91.8025 111.584 92.0416C111.524 92.7198 112.437 92.8845 113.494 92.9397L113.493 92.9389Z" fill="#C65447"/>
<path d="M94.4151 66.5506C94.4151 66.5506 106.04 67.12 108.442 68.8259C110.843 70.5318 114.086 89.41 114.086 89.41C114.086 89.41 113.835 89.6019 113.288 89.6411C112.78 89.6771 111.677 89.3244 111.677 89.3244C111.677 89.3244 106.318 80.7206 105.998 78.5941C105.678 76.4684 105.846 74.5889 104.938 74.5018C104.029 74.4146 92.6282 75.4343 91.0299 72.2385C89.4317 69.0426 94.4143 66.5498 94.4143 66.5498L94.4151 66.5506Z" fill="#FF647C"/>
<path d="M99.6187 40.7318C99.1741 40.2879 98.5587 40.0888 98.1156 40C98.2579 39.9097 98.4898 39.9249 98.4898 39.9249C98.2293 39.8113 97.5566 39.9289 97.5566 39.9289C94.1653 37.4304 92.1518 43.0055 91.9013 44.3579C91.65 45.7103 91.1892 47.6449 89.591 49.322C85.4922 53.623 91.3477 58.5999 91.3477 58.5999C91.3724 58.6255 94.2867 52.1747 97.2133 51.1382C98.053 50.3712 98.6762 48.7893 98.7249 48.6646C98.2973 49.937 97.9014 50.6096 97.6076 50.9687C100.229 49.5123 100.799 41.909 99.6195 40.7326L99.6187 40.7318Z" fill="#163560"/>
<path d="M93.9267 49.4845C93.9267 49.4845 95.0092 49.3782 96.0917 49.4845C96.827 49.5565 97.5562 49.7932 97.9706 49.9724C98.9951 50.4154 98.8876 52.2917 96.7381 51.9438C94.5878 51.5967 93.7759 50.0404 93.9267 49.4845Z" fill="#FFB27D"/>
<path d="M97.8823 50.8525C97.8947 50.8597 98.1893 52.4664 96.7813 52.4024C95.8573 52.36 93.864 51.2036 94.0403 50.3854C94.1238 49.9967 94.822 48.9874 94.9627 46.6833L95.1313 46.7297L97.9597 47.5143C97.9597 47.5143 97.8344 48.4428 97.7756 49.3217C97.7262 50.0599 97.7246 50.7629 97.8823 50.8525Z" fill="#FFB27D"/>
<path d="M97.9534 47.5143C97.9534 47.5143 97.8281 48.4428 97.7694 49.3217C96.1681 49.1642 95.418 47.5927 95.125 46.7297L97.9534 47.5143Z" fill="#F4A269"/>
<path d="M94.8609 46.2182C94.8609 46.2182 94.3753 44.6683 94.4627 43.4759C94.5245 42.6249 95.6743 39.713 98.498 40.9255C98.498 40.9255 99.3277 41.2382 99.9896 42.0099C100.516 42.6233 101.197 43.827 99.5164 46.1878L99.0292 47.0068L94.8609 46.2182Z" fill="#163560"/>
<path d="M98.0321 48.8608C98.0321 48.8608 94.3323 47.9467 94.9184 45.5722C95.5045 43.1977 95.4218 41.4807 97.8087 41.9645C100.196 42.4484 100.429 43.4745 100.42 44.3166C100.411 45.1579 99.0095 49.0383 98.0321 48.8616V48.8608Z" fill="#FFB27D"/>
<path d="M99.5062 42.3513C99.5062 42.3513 97.8067 44.8689 96.1567 44.8697C94.5066 44.8705 93.9414 44.2635 93.9414 44.2635C93.9414 44.2635 95.3711 43.6029 96.0399 41.965C96.0399 41.965 99.074 40.8238 99.5062 42.3513Z" fill="#163560"/>
<path d="M99.1973 42.5111C99.1973 42.5111 99.7971 43.3324 99.8312 43.9858C99.8652 44.6392 99.6384 45.9053 100.001 45.9556C100.001 45.9556 101.231 44.2642 100.642 42.967C100.018 41.5914 99.198 42.5103 99.198 42.5103L99.1973 42.5111Z" fill="#163560"/>
<path d="M102.24 65.9161C101.932 66.296 100.973 66.4128 99.9467 66.5879C99.1395 66.7255 98.2913 66.899 97.6882 67.2653C96.3188 68.0971 91.8443 70.9074 90.5329 70.7802C90.0241 70.7306 90.1192 69.7269 90.4277 68.3946C90.9125 66.2912 91.927 63.3697 91.927 62.0989C91.927 61.4055 92.1497 59.7652 92.4481 57.889C92.4721 57.7378 92.4969 57.5851 92.5216 57.4315C93.1108 53.7847 93.9265 49.4844 93.9265 49.4844C93.9265 49.4844 94.8366 51.5381 96.6096 51.5381C98.3825 51.5381 97.9704 49.9722 97.9704 49.9722C97.9704 49.9722 99.588 50.169 99.9707 50.5952C100.353 51.0207 101.322 52.8617 101.515 53.364C101.515 53.364 101.554 54.003 100.025 54.3069C100.025 54.3069 100.398 56.0408 100.442 57.1964C100.474 58.0505 99.8787 60.7225 99.707 62.3852C99.646 62.9738 99.6382 63.4361 99.731 63.6456C99.8493 63.9143 100.232 64.1815 100.667 64.4438C101.532 64.9644 102.606 65.4651 102.241 65.9169L102.24 65.9161Z" fill="#42567A"/>
<path d="M100.667 64.4431C101.648 66.1738 98.0052 66.6944 97.4021 67.0607C96.0327 67.8924 91.8443 70.9075 90.5329 70.7796C90.0241 70.73 90.1192 69.7263 90.4277 68.3939C90.9125 66.2905 91.927 63.369 91.927 62.0982C91.927 61.4048 92.1497 59.7645 92.4481 57.8883L94.027 56.3208C94.027 56.3208 95.7188 60.8426 97.331 61.584C98.1761 61.9719 99.0583 62.2286 99.707 62.3837C99.646 62.9724 99.6382 63.4346 99.731 63.6441C99.8493 63.9129 100.232 64.18 100.667 64.4423L100.667 64.4431Z" fill="#2C3A64"/>
<path d="M93.4455 50.8375C93.4455 50.8375 92.0955 49.9898 90.7911 51.5981C89.4859 53.2064 91.719 64.7029 93.652 65.2939C95.8 65.9497 102.245 65.9161 102.245 65.9161L101.976 65.1075C101.976 65.1075 95.2804 62.8762 95.0059 62.5107C94.7314 62.146 94.1321 51.0231 93.4463 50.8375H93.4455Z" fill="#FFB27D"/>
<path d="M93.9264 49.4844C93.9264 49.4844 91.1544 49.7427 90.3495 50.6864C89.5446 51.6293 89.3096 54.1845 89.3096 54.1845C89.3096 54.1845 91.7506 56.2223 94.6919 55.4321L93.9272 49.4852L93.9264 49.4844Z" fill="#42567A"/>
<path d="M111.131 61.7803L111.395 59.2659L107.957 63.9516C107.957 63.9516 109.397 64.693 109.481 64.5514C109.565 64.4099 111.131 61.7803 111.131 61.7803Z" fill="#163560"/>
<path d="M105.986 61.7798L102.811 66.7966H108.145L111.132 61.7798H105.986Z" fill="#42567A"/>
<path d="M111.137 61.7797L111.387 59.2893L109.588 61.615L111.137 61.7797Z" fill="#EFDECE"/>
<path d="M102.976 66.5391L102.732 66.3584L105.889 61.5071L105.988 61.7798L102.976 66.5391Z" fill="#EFDECE"/>
<path d="M105.886 61.5071L110.911 61.6533L111.131 61.7795H105.985L105.886 61.5071Z" fill="#FCECDB"/>
<path d="M104.831 65.8006C104.733 65.787 104.607 65.7894 104.489 65.7974C104.872 65.6127 105.259 65.4119 105.259 65.4119C105.259 65.4119 105.087 65.2296 104.428 65.4719C104.353 65.4991 104.279 65.5055 104.206 65.4975L105.13 65.0672C104.966 64.9137 104.523 65.0361 104.178 65.1672C103.931 65.2608 103.657 65.2192 103.449 65.0521C103.446 65.0497 103.442 65.0465 103.439 65.0441C103.455 65.0425 103.469 65.0417 103.485 65.0393C104.025 64.9569 104.162 64.6378 104.012 64.6746C103.862 64.7114 102.958 64.7793 102.958 64.7793C102.549 64.7545 101.738 65.0776 101.738 65.0776L102.191 65.943C102.191 65.943 103.494 66.1933 103.833 66.0853C103.86 66.0765 103.893 66.0645 103.93 66.0501L105.113 65.9694C105.113 65.9694 105.092 65.8374 104.831 65.8006Z" fill="#FFB27D"/>
<path d="M150.653 99.5801C150.653 99.5801 157.489 102.661 158.73 102.605C159.971 102.549 167.617 100.196 167.617 100.196L167.422 101.556C167.422 101.556 161.521 105.066 159.458 105.266C157.427 105.461 150.482 103.38 149.812 102.941C149.141 102.501 148.704 100.025 150.653 99.5801Z" fill="#ED985F"/>
<path d="M149.626 88.2471C149.626 88.2471 147.104 87.7513 145.848 88.7006C143.572 90.4192 143.45 96.3438 142.597 97.2268C141.744 98.1097 139.689 97.733 139.506 102.3C139.323 106.866 140.324 107.248 139.132 109.287C137.939 111.326 139.636 113.366 139.636 113.366C139.636 113.366 138.941 112.241 139.238 111.428C139.238 111.428 139.528 113.221 140.629 113.641C141.73 114.061 141.893 114.369 142.068 114.985C142.068 114.985 151.462 110.007 151.472 106.475C151.482 102.943 153.321 99.4461 152.418 97.9153C152.418 97.9153 152.82 98.5703 152.869 99.2981C152.869 99.2981 153.411 98.2248 152.472 97.2251C151.533 96.2263 153.573 94.1581 153.271 91.7628C153.064 90.1185 151.949 88.3175 149.624 88.2455L149.626 88.2471Z" fill="#233862"/>
<path d="M151.483 102.945C150.883 103.376 150.129 103.731 149.185 103.956C145.642 104.803 144.284 101.706 143.774 99.5802C144.258 99.2939 144.712 99.2315 144.974 99.1987C145.23 99.1675 145.499 99.1467 145.723 99.1355C146.12 98.8204 146.713 97.5304 146.845 95.5278L147.012 95.5742L149.804 96.3644C149.804 96.3644 149.676 97.2825 149.614 98.1502C149.565 98.8292 149.557 99.4778 149.682 99.637C149.9 99.6858 150.03 99.7177 150.03 99.7177C150.03 99.7177 150.03 99.7185 150.032 99.7201C150.07 99.7833 150.879 101.161 151.484 102.945H151.483Z" fill="#FFB27D"/>
<path d="M149.804 96.3654C149.804 96.3654 149.675 97.2827 149.614 98.1512C148.032 97.9872 147.298 96.4293 147.012 95.5752L149.804 96.3654Z" fill="#ED985F"/>
<path d="M150.276 97.2266C150.276 97.2266 146.521 97.0123 146.687 94.5962C146.852 92.1802 146.478 90.5247 148.883 90.5599C151.287 90.5943 151.69 91.5508 151.824 92.3705C151.959 93.1911 151.258 97.2202 150.277 97.2266H150.276Z" fill="#FFB27D"/>
<path d="M151.808 91.0192C151.278 90.2498 150.83 90.3762 150.569 90.5769C148.601 89.2589 147.16 90.8848 147.16 90.8848C146.789 92.5995 145.512 93.5032 145.512 93.5032C145.512 93.5032 146.165 93.9903 147.769 93.6887C148.26 93.5968 148.714 93.2745 149.109 92.8722C148.394 93.9303 147.471 94.6628 147.471 94.6628C149.416 93.9023 150.359 91.2511 150.454 90.9704C150.668 91.1999 151.087 91.6958 151.194 92.158C151.339 92.7874 151.961 93.7703 152.321 93.7543C152.321 93.7543 152.601 92.174 151.808 91.02V91.0192Z" fill="#233862"/>
<path d="M142.706 110.84C142.367 109.047 141.261 101.885 142.367 99.5805C142.764 98.7528 144.322 98.6776 146.031 98.7504C146.563 99.1055 148.59 100.447 149.422 100.28C149.432 100.279 149.448 100.275 149.469 100.269C149.861 100.168 150.009 99.8829 149.682 99.6373C149.682 99.6373 150.528 99.5526 151.58 99.7573C152.174 99.8733 153.775 100.73 153.775 100.73C153.775 100.73 152.968 102.237 151.779 102.757C151.982 104.629 151.681 105.454 149.804 109.776C148.218 113.429 150.018 116.718 150.018 116.718C150.018 116.718 140.682 124.482 140.63 120.529C140.592 117.553 143.139 113.132 142.706 110.841V110.84Z" fill="white"/>
<path d="M150.481 125.16C150.989 125.101 151.446 124.813 151.73 124.374C151.775 124.305 151.823 124.229 151.874 124.149C152.937 122.486 153.351 117.39 155.741 111.961C156.323 110.639 158.413 110.402 158.983 108.908C158.983 108.908 160.385 104.065 156.298 103.922C152.211 103.779 145.352 117.396 145.243 118.824C145.138 120.207 142.541 126.086 150.481 125.159V125.16Z" fill="#D75569"/>
<path d="M166.728 125.049H160.91C160.91 125.049 160.693 124.089 161.075 123.436C161.413 122.858 161.284 122.529 161.033 122.05C161.297 122.162 161.638 122.263 162.013 122.242C162.303 122.224 162.609 122.088 162.878 121.927C163.129 122.222 164.2 123.479 164.536 123.728C164.916 124.01 166.611 123.909 166.728 125.048V125.049Z" fill="#233862"/>
<path d="M143.315 101.458C143.315 101.458 142.558 108.583 147.467 110.076C152.377 111.569 153.771 103.52 149.807 102.941C145.843 102.362 143.315 101.458 143.315 101.458Z" fill="#EBEEF2"/>
<path d="M159.116 105.322C159.466 108.038 160.834 116.611 163.247 120.794C164.025 122.143 161.287 122.898 161.272 122.894C160.905 122.795 160.293 122.19 160.011 121.927C158.052 120.101 154.075 114.93 154.075 110.784C154.075 108.762 154.041 104.901 155.462 103.92C156.338 103.316 158.977 104.242 159.116 105.321V105.322Z" fill="#EF3D56"/>
<path d="M147.013 125.05C147.013 125.05 147.229 124.739 147.605 124.15C148.052 123.449 148.547 122.07 149.148 120.302C149.779 118.445 150.527 116.162 151.463 113.786C151.751 113.053 152.058 112.31 152.384 111.569C152.966 110.247 154.568 110.43 155.137 108.936C155.137 108.936 157.361 103.757 153.274 103.614C149.187 103.471 141.421 117.469 140.974 118.824C140.485 120.309 138.101 126.471 147.013 125.049V125.05Z" fill="#FF647C"/>
<path d="M162.453 125.049H156.636C156.636 125.049 156.418 124.089 156.8 123.436C157.138 122.858 157.009 122.529 156.759 122.05C157.022 122.162 157.363 122.263 157.738 122.242C158.028 122.224 158.335 122.088 158.604 121.927C158.854 122.222 159.926 123.479 160.261 123.728C160.642 124.01 162.337 123.909 162.453 125.048V125.049Z" fill="#12203A"/>
<path d="M149.146 120.301C149.777 118.444 150.526 116.161 151.461 113.785C151.217 111.985 150.69 110.41 149.804 109.776C149.804 109.776 147.654 116.664 149.146 120.301Z" fill="#EF3D56"/>
<path d="M155.723 105.129C156.073 107.845 156.566 116.611 158.979 120.794C159.757 122.143 157.019 122.898 157.005 122.894C156.637 122.795 156.026 122.19 155.744 121.927C153.784 120.101 149.808 114.93 149.808 110.784C149.808 108.762 152.101 105.064 153.522 104.083C154.397 103.478 155.583 104.05 155.723 105.129V105.129Z" fill="#FF647C"/>
<path d="M150.98 95.8373C150.98 95.8373 150.625 95.6919 149.625 95.7758C149.625 95.7758 149.678 96.1784 150.415 96.2183C150.833 96.2407 150.979 95.8373 150.979 95.8373H150.98Z" fill="white"/>
<path d="M168.337 97.3484L167.13 95.0979L164.521 102.628L166.061 104.337L168.337 97.3484Z" fill="#163560"/>
<path d="M162.042 98.6669L159.616 105.833L166.063 104.337L168.339 97.3481L162.042 98.6669Z" fill="#42567A"/>
<path d="M159.744 105.472L159.631 105.268L161.926 98.4861L162.041 98.6676L159.744 105.472Z" fill="#EFDECE"/>
<path d="M161.929 98.4859L168.041 97.2559L168.341 97.3486L162.044 98.6674L161.929 98.4859Z" fill="#FCECDB"/>
<path d="M168.346 97.3487L167.041 95.2078L166.208 97.6254L168.045 97.2559L168.346 97.3487Z" fill="#EFDECE"/>
<path d="M163.908 99.7051C163.698 99.6635 163.248 99.4883 162.793 99.3588C162.929 99.2492 163.081 99.1156 163.122 98.9781C163.204 98.7126 163.258 98.627 162.987 98.711C162.716 98.7949 161.768 99.2444 161.768 99.2444L161.771 99.246C161.233 99.4084 160.736 100.196 160.736 100.196C160.736 100.196 154.071 102.619 153.269 102.661C152.029 102.726 143.772 99.5803 143.772 99.5803C141.823 100.025 142.26 102.502 142.931 102.941C143.601 103.381 149.542 105.616 153.064 105.658C154.847 105.679 161.335 101.366 161.335 101.366C161.335 101.366 162.093 101.008 162.689 101.12C163.285 101.232 164.666 101.12 164.963 100.616C165.261 100.112 164.259 99.7754 163.907 99.7059L163.908 99.7051Z" fill="#FFB27D"/>
<path d="M148.025 101.132C148.025 101.132 147.287 103.549 144.751 104.1C144.751 104.1 140.562 102.765 142.647 99.8137C142.647 99.8137 144.71 98.2294 148.025 101.132Z" fill="white"/>
<path d="M168.239 99.8881C168.24 99.8217 168.234 99.7553 168.216 99.6921C168.216 99.6921 167.618 98.7148 167.422 98.6748C166.825 98.5533 166.825 99.365 166.952 99.8881C167.04 100.253 167.265 100.603 167.446 100.792L167.422 101.556C168.43 100.984 168.239 99.8881 168.239 99.8881Z" fill="#FFB27D"/>
<path d="M115.479 111.798C115.479 111.798 114.417 112.469 114.066 113.571C114.004 113.764 113.964 113.97 113.956 114.188C113.897 115.652 113.956 118.967 113.956 118.967L110.821 117.31L107.694 118.967V114.474C107.694 113.625 107.963 112.798 108.461 112.257C108.702 111.995 108.995 111.797 109.327 111.797H115.479V111.798Z" fill="#FF647C"/>
<path d="M115.481 111.798C115.481 111.798 114.42 112.469 114.068 113.571L107.786 113.636C107.786 113.636 108.033 112.058 109.329 111.798H115.481Z" fill="#EF3D56"/>
<path d="M53.7607 90.3513C53.7607 90.3513 54.4265 93.3392 56.3672 93.3392C58.0312 93.3392 60.3129 89.45 60.3129 89.45L53.7607 90.3513Z" fill="#FF647C"/>
<path d="M75.9335 134.756L74.82 135.367C74.82 135.367 68.7983 128.762 67.3508 122.425C67.0926 121.293 66.9882 120.178 67.0988 119.119C67.0988 119.119 67.0114 118.832 66.8583 118.325C66.8513 118.302 66.8444 118.28 66.8382 118.257C66.7709 118.034 66.6905 117.772 66.6016 117.475C66.3109 116.518 65.9111 115.207 65.4565 113.715C64.4088 110.282 62.011 102.538 60.9873 99.3169L68.3498 96.5618C68.3498 96.5618 69.1857 98.534 70.388 103.895C70.5728 104.594 70.7584 105.368 70.9316 106.211C71.128 107.166 71.3112 108.21 71.4635 109.338C71.7218 111.248 71.8942 113.398 71.905 115.757C71.9089 116.716 71.8865 117.71 71.8316 118.737C71.7914 119.489 71.8996 120.492 72.1022 121.632C73.0301 126.848 75.9358 134.753 75.9358 134.753L75.9335 134.756Z" fill="#12203A"/>
<path d="M79.9664 137.673H74.0143C74.0143 137.673 73.7916 136.691 74.1828 136.023C74.5285 135.432 74.3962 135.095 74.1403 134.606C74.4102 134.72 74.7589 134.824 75.1432 134.801C75.4401 134.783 75.7532 134.644 76.0285 134.479C76.2844 134.781 77.3816 136.067 77.7241 136.321C78.1131 136.61 79.8474 136.507 79.9672 137.673H79.9664Z" fill="#233862"/>
<path d="M71.4579 109.339L66.8333 118.257C66.766 118.034 66.6856 117.772 66.5967 117.475C66.306 116.518 65.9062 115.207 65.4516 113.715C64.4039 110.282 62.0062 102.538 60.9824 99.3169L68.3449 96.5618C68.3449 96.5618 69.1808 98.534 70.3831 103.895C70.5679 104.595 70.7535 105.368 70.9267 106.211C71.1231 107.166 71.3063 108.21 71.4586 109.338L71.4579 109.339Z" fill="#233862"/>
<path d="M60.8682 135.746C60.8682 135.746 60.4561 136.791 60.8442 137.673H64.0817C64.0817 137.673 64.1489 136.878 62.9737 135.956C62.0837 135.258 60.8674 135.746 60.8674 135.746H60.8682Z" fill="#233862"/>
<path d="M64.388 67.6754C64.3903 67.5091 64.473 65.7112 67.1128 65.5513C67.1128 65.5513 65.8169 65.744 65.6066 66.3406C65.6066 66.3406 66.4741 65.5889 67.2002 65.8056C67.9262 66.0223 68.3801 67.3179 68.394 67.7466C68.4079 68.1761 68.0399 69.57 67.586 69.6996C67.4136 69.7484 67.2141 69.7412 67.0324 69.714C67.1584 69.9075 67.2829 70.1211 67.4027 70.3602C68.5092 72.5723 67.5543 75.1787 66.6566 74.9596C66.0805 74.8188 65.7303 75.8513 65.7303 75.8513L60.1895 70.9232C60.1895 70.9232 62.1302 66.4998 64.3888 67.6746L64.388 67.6754Z" fill="#2C3A64"/>
<path d="M60.9141 82.6506C61.528 83.0913 62.2989 83.4552 63.2654 83.6855C66.8902 84.5516 68.2789 81.383 68.8008 79.2077C68.3067 78.915 67.8413 78.851 67.5729 78.8174C67.3108 78.7854 67.0356 78.7646 66.8075 78.7526C66.4008 78.4303 65.7938 77.1107 65.66 75.0618L65.4892 75.109L62.6329 75.9175C62.6329 75.9175 62.7636 76.8564 62.8278 77.7441C62.8772 78.4391 62.885 79.1029 62.7582 79.2653C62.5355 79.3157 62.4017 79.3476 62.4017 79.3476C62.4017 79.3476 62.4017 79.3484 62.4002 79.35C62.3615 79.4148 61.5334 80.8248 60.9148 82.649L60.9141 82.6506Z" fill="#FFB27D"/>
<path d="M62.627 75.919C62.627 75.919 62.7584 76.8571 62.8218 77.7456C64.4401 77.5777 65.1917 75.9845 65.484 75.1096L62.627 75.9182V75.919Z" fill="#ED985F"/>
<path d="M62.5977 77.3281C62.5977 77.3281 66.3238 76.338 65.6921 73.9467C65.0604 71.5562 65.1152 69.8184 62.7098 70.3494C60.3043 70.8804 60.0847 71.9233 60.1079 72.7743C60.1311 73.6252 61.6126 77.524 62.5977 77.3281Z" fill="#FFB27D"/>
<path d="M59.8636 71.4146C60.2463 70.5325 60.7211 70.5677 61.0218 70.7148C62.743 68.9858 64.5021 70.3197 64.5021 70.3197C65.2057 71.964 66.6616 72.607 66.6616 72.607C66.6616 72.607 66.1003 73.2308 64.4317 73.2588C63.9222 73.2676 63.4041 73.0381 62.9301 72.7166C63.851 73.6307 64.9188 74.1754 64.9188 74.1754C62.8203 73.8139 61.3621 71.3482 61.212 71.0859C61.0412 71.3602 60.7164 71.944 60.6994 72.4311C60.6762 73.0925 60.9252 74.3689 60.561 74.4265C60.561 74.4265 59.2898 72.7382 59.8636 71.4154V71.4146Z" fill="#2C3A64"/>
<path d="M61.5252 79.1502C61.5252 79.1502 67.7836 77.5787 70.5045 79.9004L69.1444 99.5168L56.9053 96.4585C56.9053 96.4585 57.2494 95.2173 59.5968 91.9167C61.9435 88.6161 60.9229 83.7744 61.5252 79.151V79.1502Z" fill="#FFB27D"/>
<path d="M65.1708 97.3331C65.1708 97.3331 65.1638 97.3995 65.1507 97.5266C65.1453 97.581 65.1375 97.6466 65.1298 97.7242C65.0772 98.2328 64.9775 99.2085 64.8492 100.477C64.5136 103.804 63.9862 109.147 63.6275 113.365C63.3468 116.662 63.1682 119.273 63.2648 119.692C63.5548 120.953 63.2648 136.028 63.2648 136.028C62.2249 136.544 60.6475 136.028 60.6475 136.028C60.6475 136.028 57.8763 122.444 58.2645 120.556C58.6526 118.667 58.0055 117.056 58.0055 117.056C55.8544 106.693 56.0894 100.95 56.517 98.1992C56.6415 97.3995 56.7822 96.8533 56.8851 96.5206C56.9725 96.2374 57.0328 96.1079 57.0328 96.1079C61.778 94.7875 65.1723 97.3355 65.1723 97.3355L65.1708 97.3331Z" fill="#12203A"/>
<path d="M71.3424 85.4946C71.04 87.8547 69.8315 90.7426 69.4001 92.2965C69.4001 92.2965 70.1215 97.6932 69.4325 99.1752C69.3544 99.3439 69.257 99.4623 69.1387 99.5159C66.5863 100.666 56.6483 99.5495 56.2284 96.2329C56.0761 95.0277 60.0141 90.7898 60.2437 90.2755C60.3388 90.0628 60.4401 89.3734 59.9785 87.9442C59.3244 90.0316 55.7119 89.431 55.7119 89.431C56.1356 88.6808 57.1918 83.4896 58.3718 81.1463C59.2586 79.3845 61.6262 79.1301 61.6262 79.1301C61.6262 79.1301 62.6113 80.7464 64.9943 80.5169C67.3773 80.2874 67.8127 78.7791 67.8127 78.7791C67.8127 78.7791 69.9258 79.0694 70.5777 79.6132C70.6905 79.7076 71.739 82.4027 71.3424 85.4946Z" fill="#FF647C"/>
<path d="M69.4023 92.297C69.4023 92.297 70.1237 97.6938 69.4348 99.1757C67.5752 98.2104 65.152 96.127 65.8896 92.8712C66.9605 88.1415 71.3446 85.4951 71.3446 85.4951C71.0423 87.8552 69.8338 90.7431 69.4023 92.297Z" fill="#EF3D56"/>
<path d="M61.6363 85.9146L65.8974 92.986H58.647L54.5869 86.0681L61.6363 85.9146Z" fill="#42567A"/>
<path d="M65.6787 92.632L65.7522 92.3849L61.7191 85.6934L61.6387 85.9157L65.6787 92.632Z" fill="#EFDECE"/>
<path d="M61.7167 85.6934L54.8862 85.8946L54.5869 86.0688L61.6363 85.9154L61.7167 85.6934Z" fill="#FCECDB"/>
<path d="M54.5879 86.0681L50.7559 83.9224L55.2227 91.1777L58.648 92.986L54.5879 86.0681Z" fill="#163560"/>
<path d="M74.8732 91.023C74.4627 91.2166 73.4095 92.501 73.033 92.6313C71.342 93.2159 64.1465 91.6588 64.1465 91.6588L64.3692 90.3552C64.3692 90.3552 71.4317 90.5496 72.208 90.3344C72.3541 90.2936 73.1173 89.0588 73.4111 88.8821L74.8732 91.023Z" fill="#FFB27D"/>
<path d="M64.367 90.3551C64.367 90.3551 63.5149 89.6385 62.9397 89.8001C62.3644 89.9624 61.5177 90.715 61.203 90.8933C60.8884 91.0717 60.0347 91.7091 60.4677 92.0946C60.9007 92.4801 62.2484 92.149 62.7827 91.8538C63.317 91.5579 64.1443 91.6595 64.1443 91.6595L64.367 90.3551Z" fill="#FFB27D"/>
<path d="M63.1054 89.7764C63.1054 89.7764 62.0691 89.6486 61.7866 89.655C61.5033 89.6606 61.5807 89.7245 61.7363 89.9514C61.8926 90.1782 62.432 90.2645 62.4568 90.3436C62.4816 90.4226 63.1054 89.7764 63.1054 89.7764Z" fill="#FFB27D"/>
<path d="M67.8199 78.7789C67.8199 78.7789 70.8895 79.1556 71.7347 80.5167C72.8032 82.2378 75.3254 89.0941 75.2435 90.8216C75.2435 90.8216 73.3994 94.0678 67.0768 93.5479C67.0768 93.5479 66.4188 91.1447 67.7488 90.3513C67.7488 90.3513 70.9962 89.7539 71.3705 89.4132L70.2857 84.749L67.8199 78.7781V78.7789Z" fill="#FF647C"/>
<path d="M55.5813 88.6531C55.4861 88.2533 54.6417 88.5028 54.3576 88.7331C54.2888 88.7891 54.2145 88.8843 54.1417 88.9962C54.1332 88.9291 54.1254 88.8651 54.1208 88.8155C54.1046 88.6275 53.8933 88.2908 53.8406 88.5428C53.788 88.7947 53.7013 89.8536 53.7013 89.8536C53.6913 90.7061 54.2214 91.058 54.5627 90.7805C54.9041 90.503 55.6773 89.053 55.5821 88.6531H55.5813Z" fill="#FFB27D"/>
</g>
<defs>
<linearGradient id="paint0_linear_1529_7469" x1="236.196" y1="-18.4376" x2="-126.092" y2="26.7644" gradientUnits="userSpaceOnUse">
<stop stop-color="#FFF5DE"/>
<stop offset="0.977925" stop-color="#FFF5DE" stop-opacity="0.15"/>
</linearGradient>
<linearGradient id="paint1_linear_1529_7469" x1="227.009" y1="-18.8194" x2="-109.239" y2="20.3823" gradientUnits="userSpaceOnUse">
<stop stop-color="#FFF5DE"/>
<stop offset="0.977925" stop-color="#FFF5DE" stop-opacity="0.15"/>
</linearGradient>
</defs>
</svg>
